<svg width="56" height="56" viewBox="0 0 56 56" fill="none" xmlns="http://www.w3.org/2000/svg">
<path fill-rule="evenodd" clip-rule="evenodd" d="M38 20.5C38 23.1522 36.9464 25.6957 35.0711 27.5711C33.1957 29.4464 30.6522 30.5 28 30.5C25.3478 30.5 22.8043 29.4464 20.9289 27.5711C19.0536 25.6957 18 23.1522 18 20.5C18 17.8478 19.0536 15.3043 20.9289 13.4289C22.8043 11.5536 25.3478 10.5 28 10.5C30.6522 10.5 33.1957 11.5536 35.0711 13.4289C36.9464 15.3043 38 17.8478 38 20.5ZM33 20.5C33 21.8261 32.4732 23.0979 31.5355 24.0355C30.5979 24.9732 29.3261 25.5 28 25.5C26.6739 25.5 25.4021 24.9732 24.4645 24.0355C23.5268 23.0979 23 21.8261 23 20.5C23 19.1739 23.5268 17.9021 24.4645 16.9645C25.4021 16.0268 26.6739 15.5 28 15.5C29.3261 15.5 30.5979 16.0268 31.5355 16.9645C32.4732 17.9021 33 19.1739 33 20.5Z" fill="#005BCF"/>
<path fill-rule="evenodd" clip-rule="evenodd" d="M28 0.5C12.8125 0.5 0.5 12.8125 0.5 28C0.5 43.1875 12.8125 55.5 28 55.5C43.1875 55.5 55.5 43.1875 55.5 28C55.5 12.8125 43.1875 0.5 28 0.5ZM5.5 28C5.5 33.225 7.2825 38.035 10.27 41.855C12.3681 39.0997 15.0747 36.8669 18.1786 35.3308C21.2824 33.7947 24.6994 32.997 28.1625 33C31.5808 32.9968 34.9548 33.7738 38.0273 35.272C41.0999 36.7701 43.7899 38.9498 45.8925 41.645C48.0586 38.804 49.5171 35.488 50.1472 31.9715C50.7774 28.4549 50.5611 24.8388 49.5162 21.4225C48.4714 18.0061 46.628 14.8876 44.1387 12.3251C41.6494 9.76257 38.5856 7.82965 35.201 6.68627C31.8163 5.54289 28.208 5.22193 24.6747 5.74993C21.1413 6.27794 17.7845 7.63973 14.8819 9.72263C11.9794 11.8055 9.61453 14.5497 7.98307 17.728C6.35162 20.9063 5.50045 24.4274 5.5 28ZM28 50.5C22.8349 50.5078 17.8257 48.7309 13.82 45.47C15.4323 43.1618 17.5783 41.2773 20.0755 39.9767C22.5726 38.6761 25.347 37.998 28.1625 38C30.9429 37.9978 33.6837 38.6589 36.1573 39.9286C38.6309 41.1982 40.7659 43.0396 42.385 45.3C38.3482 48.6668 33.2565 50.5074 28 50.5Z" fill="#005BCF"/>
</svg>
